<svg xmlns="http://www.w3.org/2000/svg" viewBox="0 0 48 48" width="48" height="48" role="img" aria-label="Tu mascota, nuestra prioridad">
  <path d="M24 42S4 30.4 4 17.9A10.9 10.9 0 0 1 24 11.6 10.9 10.9 0 0 1 44 17.9C44 30.4 24 42 24 42Z" fill="#FFFFFF"/>
  <g fill="#08258B">
    <ellipse cx="18.4" cy="18.6" rx="2.4" ry="3"/>
    <ellipse cx="25.2" cy="17.4" rx="2.4" ry="3"/>
    <ellipse cx="31" cy="21.3" rx="2.4" ry="2.8" transform="rotate(22 31 21.3)"/>
    <ellipse cx="13.1" cy="24.1" rx="2.4" ry="2.8" transform="rotate(-22 13.1 24.1)"/>
    <path d="M22.3 23.5c3.5 0 6.7 2.8 7.8 6.2 1 3.3-1 6.6-4.4 6.6-1.3 0-2.3-.4-3.4-.8-1.1.4-2.1.8-3.4.8-3.4 0-5.4-3.3-4.4-6.6 1.1-3.4 4.3-6.2 7.8-6.2Z"/>
  </g>
</svg>
